<?xml version="1.0" standalone="no"?><!DOCTYPE svg PUBLIC "-//W3C//DTD SVG 1.1//EN" "http://www.w3.org/Graphics/SVG/1.1/DTD/svg11.dtd"><svg t="1640242069013" class="icon" viewBox="0 0 1024 1024" version="1.1" xmlns="http://www.w3.org/2000/svg" p-id="4659" width="16" height="16" xmlns:xlink="http://www.w3.org/1999/xlink"><defs><style type="text/css"></style></defs><path d="M496.529 748.638l-180.54-236.26 186.647-236.256a38.17 38.17 0 0 0 8.781-24.048 38.19 38.19 0 0 0-13.743-29.395 38.172 38.172 0 0 0-53.822 4.962L237.36 487.95c-11.581 14.084-11.581 34.392 0 48.474l200.005 260.308a38.166 38.166 0 0 0 53.822 5.727 38.158 38.158 0 0 0 13.848-25.799 38.178 38.178 0 0 0-8.506-28.022z m0 0M520.196 487.95c-11.58 14.084-11.58 34.392 0 48.474l200.006 260.308a38.164 38.164 0 0 0 53.821 5.727 38.172 38.172 0 0 0 5.723-53.822l-180.92-236.26 186.647-236.256a38.17 38.17 0 0 0 8.78-24.048 38.183 38.183 0 0 0-41.682-38.079 38.178 38.178 0 0 0-25.883 13.646L520.196 487.95z m0 0" p-id="4660" fill="#bfbfbf"></path></svg>