<?xml version="1.0" standalone="no"?><!DOCTYPE svg PUBLIC "-//W3C//DTD SVG 1.1//EN" "http://www.w3.org/Graphics/SVG/1.1/DTD/svg11.dtd"><svg t="1640242077037" class="icon" viewBox="0 0 1024 1024" version="1.1" xmlns="http://www.w3.org/2000/svg" p-id="4902" width="16" height="16" xmlns:xlink="http://www.w3.org/1999/xlink"><defs><style type="text/css"></style></defs><path d="M527.471 275.362l180.54 236.26-186.646 236.256a38.17 38.17 0 0 0-8.781 24.048 38.19 38.19 0 0 0 13.743 29.395 38.172 38.172 0 0 0 53.822-4.962L786.641 536.05c11.581-14.084 11.581-34.392 0-48.474L586.635 227.267a38.169 38.169 0 0 0-53.822-5.726 38.158 38.158 0 0 0-13.848 25.799 38.178 38.178 0 0 0 8.506 28.022z m0 0M503.804 536.05c11.58-14.084 11.58-34.392 0-48.474L303.798 227.267a38.17 38.17 0 0 0-53.821-5.726 38.172 38.172 0 0 0-5.723 53.822l180.92 236.26-186.647 236.255a38.17 38.17 0 0 0-8.78 24.048 38.183 38.183 0 0 0 41.682 38.079 38.178 38.178 0 0 0 25.883-13.646L503.804 536.05z m0 0" p-id="4903" fill="#bfbfbf"></path></svg>