<?xml version="1.0" standalone="no"?><!DOCTYPE svg PUBLIC "-//W3C//DTD SVG 1.1//EN" "http://www.w3.org/Graphics/SVG/1.1/DTD/svg11.dtd"><svg t="1641553564873" class="icon" viewBox="0 0 1024 1024" version="1.1" xmlns="http://www.w3.org/2000/svg" p-id="2189" xmlns:xlink="http://www.w3.org/1999/xlink" width="32" height="32"><defs><style type="text/css"></style></defs><path d="M192 832a32 32 0 0 0 0 64h640a32 32 0 0 0 0-64H192z m0-64h640a96 96 0 0 1 0 192H192a96 96 0 0 1 0-192zM768 208a48 48 0 1 0 96 0 48 48 0 1 0-96 0zM160 208a48 48 0 1 0 96 0 48 48 0 1 0-96 0z" p-id="2190"></path><path d="M480 608a32 32 0 0 1 64 0v160a32 32 0 0 1-64 0V608z" p-id="2191"></path><path d="M512 640a112 112 0 1 1 0-224 112 112 0 0 1 0 224z m0-64a48 48 0 1 0 0-96 48 48 0 0 0 0 96z m352-96a32 32 0 0 1 0-64h96a32 32 0 0 1 0 64h-96z m-800 0a32 32 0 0 1 0-64h96a32 32 0 0 1 0 64H64zM480 64a32 32 0 0 1 64 0v96a32 32 0 0 1-64 0V64z" p-id="2192"></path><path d="M272.448 800h-64V512a304 304 0 0 1 608 0v288h-64V512a240 240 0 0 0-480 0v288z" p-id="2193"></path></svg>