<?xml version="1.0" encoding="UTF-8"?>
<svg width="21px" height="21px" viewBox="0 0 21 21" version="1.1" xmlns="http://www.w3.org/2000/svg" xmlns:xlink="http://www.w3.org/1999/xlink">
    <!-- Generator: Sketch 61 (89581) - https://sketch.com -->
    <title>1</title>
    <desc>Created with Sketch.</desc>
    <g id="页面-1" stroke="none" stroke-width="1" fill="none" fill-rule="evenodd">
        <path d="M10.5,0 C4.7015625,0 0,4.7015625 0,10.5 C0,16.2984375 4.7015625,21 10.5,21 C16.2984375,21 21,16.2984375 21,10.5 C21,4.7015625 16.2984375,0 10.5,0 Z M14.3765625,14.4890625 L12.8296875,14.4820313 L10.5,11.7046875 L8.17265625,14.4796875 L6.6234375,14.4867187 C6.5203125,14.4867187 6.4359375,14.4046875 6.4359375,14.2992187 C6.4359375,14.2546875 6.45234375,14.2125 6.48046875,14.1773437 L9.5296875,10.5445312 L6.48046875,6.9140625 C6.45234375,6.87890625 6.4359375,6.83671875 6.4359375,6.7921875 C6.4359375,6.6890625 6.5203125,6.6046875 6.6234375,6.6046875 L8.17265625,6.61171875 L10.5,9.3890625 L12.8273437,6.6140625 L14.3742187,6.60703125 C14.4773437,6.60703125 14.5617187,6.6890625 14.5617187,6.79453125 C14.5617187,6.8390625 14.5453125,6.88125 14.5171875,6.91640625 L11.4726562,10.546875 L14.5195312,14.1796875 C14.5476563,14.2148438 14.5640625,14.2570312 14.5640625,14.3015625 C14.5640625,14.4046875 14.4796875,14.4890625 14.3765625,14.4890625 Z" id="1" fill="#FF4D4F"></path>
    </g>
</svg>