<?xml version="1.0" encoding="UTF-8"?>
<svg width="21px" height="21px" viewBox="0 0 21 21" version="1.1" xmlns="http://www.w3.org/2000/svg" xmlns:xlink="http://www.w3.org/1999/xlink">
    <!-- Generator: Sketch 61 (89581) - https://sketch.com -->
    <title>3</title>
    <desc>Created with Sketch.</desc>
    <g id="页面-1" stroke="none" stroke-width="1" fill="none" fill-rule="evenodd">
        <g id="3" fill="#909399">
            <g id="info">
                <g id="形状">
                    <path d="M10.5,0 C13.46875,0.078125 15.9414062,1.10546875 17.9179688,3.08203125 C19.8945313,5.05859375 20.921875,7.53125 21,10.5 C20.921875,13.46875 19.8945313,15.9414062 17.9179688,17.9179688 C15.9414062,19.8945313 13.46875,20.921875 10.5,21 C7.53125,20.921875 5.05859375,19.8945313 3.08203125,17.9179688 C1.10546875,15.9414062 0.078125,13.46875 0,10.5 C0.078125,7.53125 1.10546875,5.05859375 3.08203125,3.08203125 C5.05859375,1.10546875 7.53125,0.078125 10.5,0 Z M12.0703125,6.4453125 C12.4765625,6.4453125 12.8125,6.32421875 13.078125,6.08203125 C13.34375,5.83984375 13.4765625,5.515625 13.4765625,5.109375 C13.4765625,4.703125 13.34375,4.37890625 13.078125,4.13671875 C12.8125,3.89453125 12.4804687,3.7734375 12.0820312,3.7734375 C11.6835937,3.7734375 11.3515625,3.89453125 11.0859375,4.13671875 C10.8203125,4.37890625 10.6875,4.703125 10.6875,5.109375 C10.6875,5.515625 10.8203125,5.83984375 11.0859375,6.08203125 C11.3515625,6.32421875 11.6796875,6.4453125 12.0703125,6.4453125 Z M12.3515625,14.8828125 C12.3515625,14.7890625 12.359375,14.6640625 12.375,14.5078125 C12.390625,14.3515625 12.390625,14.203125 12.375,14.0625 L11.1328125,15.4921875 C11.0078125,15.6328125 10.8789062,15.7421875 10.7460937,15.8203125 C10.6132812,15.8984375 10.5,15.921875 10.40625,15.890625 C10.265625,15.828125 10.203125,15.71875 10.21875,15.5625 L12.28125,9.0703125 C12.359375,8.6328125 12.2890625,8.2578125 12.0703125,7.9453125 C11.8515625,7.6328125 11.5,7.4453125 11.015625,7.3828125 C10.46875,7.3984375 9.87109375,7.62890625 9.22265625,8.07421875 C8.57421875,8.51953125 8.0078125,9.0859375 7.5234375,9.7734375 L7.5234375,10.125 C7.5078125,10.28125 7.5078125,10.4296875 7.5234375,10.5703125 L8.765625,9.140625 C8.890625,9 9.01953125,8.890625 9.15234375,8.8125 C9.28515625,8.734375 9.390625,8.7109375 9.46875,8.7421875 C9.625,8.8203125 9.6796875,8.9453125 9.6328125,9.1171875 L7.59375,15.5859375 C7.484375,15.9765625 7.5390625,16.3242187 7.7578125,16.6289062 C7.9765625,16.9335937 8.359375,17.140625 8.90625,17.25 C9.6875,17.234375 10.34375,17.0078125 10.875,16.5703125 C11.40625,16.1328125 11.8984375,15.5703125 12.3515625,14.8828125 Z"></path>
                </g>
            </g>
        </g>
    </g>
</svg>