<?xml version="1.0" encoding="UTF-8"?>
<svg width="21px" height="21px" viewBox="0 0 21 21" version="1.1" xmlns="http://www.w3.org/2000/svg" xmlns:xlink="http://www.w3.org/1999/xlink">
    <!-- Generator: Sketch 61 (89581) - https://sketch.com -->
    <title>2</title>
    <desc>Created with Sketch.</desc>
    <g id="页面-1" stroke="none" stroke-width="1" fill="none" fill-rule="evenodd">
        <path d="M10.5,0 C4.7015625,0 0,4.7015625 0,10.5 C0,16.2984375 4.7015625,21 10.5,21 C16.2984375,21 21,16.2984375 21,10.5 C21,4.7015625 16.2984375,0 10.5,0 Z M15.0351563,7.07109375 L10.0992187,13.9148438 C9.8015625,14.3296875 9.18515625,14.3296875 8.8875,13.9148438 L5.96484375,9.86484375 C5.87578125,9.740625 5.96484375,9.5671875 6.1171875,9.5671875 L7.21640625,9.5671875 C7.45546875,9.5671875 7.6828125,9.68203125 7.8234375,9.87890625 L9.4921875,12.1945312 L13.1765625,7.08515625 C13.3171875,6.890625 13.5421875,6.7734375 13.7835937,6.7734375 L14.8828125,6.7734375 C15.0351563,6.7734375 15.1242188,6.946875 15.0351563,7.07109375 Z" id="2" fill="#52C41A"></path>
    </g>
</svg>