<?xml version="1.0" encoding="UTF-8"?>
<svg width="21px" height="21px" viewBox="0 0 21 21" version="1.1" xmlns="http://www.w3.org/2000/svg" xmlns:xlink="http://www.w3.org/1999/xlink">
    <!-- Generator: Sketch 61 (89581) - https://sketch.com -->
    <title>4</title>
    <desc>Created with Sketch.</desc>
    <g id="页面-1" stroke="none" stroke-width="1" fill="none" fill-rule="evenodd">
        <path d="M10.5,0 C4.7015625,0 0,4.7015625 0,10.5 C0,16.2984375 4.7015625,21 10.5,21 C16.2984375,21 21,16.2984375 21,10.5 C21,4.7015625 16.2984375,0 10.5,0 Z M9.75,5.4375 C9.75,5.334375 9.834375,5.25 9.9375,5.25 L11.0625,5.25 C11.165625,5.25 11.25,5.334375 11.25,5.4375 L11.25,11.8125 C11.25,11.915625 11.165625,12 11.0625,12 L9.9375,12 C9.834375,12 9.75,11.915625 9.75,11.8125 L9.75,5.4375 Z M10.5,15.75 C9.87890625,15.75 9.375,15.2460938 9.375,14.625 C9.375,14.0039062 9.87890625,13.5 10.5,13.5 C11.1210938,13.5 11.625,14.0039062 11.625,14.625 C11.625,15.2460938 11.1210938,15.75 10.5,15.75 Z" id="4" fill="#FAAD14"></path>
    </g>
</svg>