<?xml version="1.0" encoding="UTF-8"?>
<svg width="17px" height="17px" viewBox="0 0 17 17" version="1.1" xmlns="http://www.w3.org/2000/svg" xmlns:xlink="http://www.w3.org/1999/xlink">
    <!-- Generator: Sketch 61 (89581) - https://sketch.com -->
    <title>编组 6</title>
    <desc>Created with Sketch.</desc>
    <g id="Welcome" stroke="none" stroke-width="1" fill="#FC5531" fill-rule="evenodd">
        <g id="用户管理-超管" transform="translate(-683.000000, -100.000000)">
            <g id="编组-6" transform="translate(683.000000, 100.000000)">
                <g id="编组-4" transform="translate(2.092667, 1.759200)" fill="#FC5531">
                    <path d="M6.91666667,5.4956 C6.92133333,5.4956 6.92466667,5.49226667 6.92466667,5.4876 L6.92466667,4.53826667 C6.92466667,4.0376 6.69066667,3.80426667 6.19,3.80426667 C5.74466667,3.80426667 5.51066667,4.0376 5.51066667,4.53826667 L5.51066667,5.48826667 C5.51066667,5.49293333 5.514,5.49626667 5.518,5.49626667 L6.91666667,5.4956 Z M4.30466667,6.10893333 C4.19933333,6.10893333 4.098,6.15026667 4.024,6.22493333 C3.94933333,6.2996 3.90733333,6.40026667 3.90733333,6.50626667 L3.90733333,9.06226667 C3.90733333,9.2816 4.08533333,9.45893333 4.30466667,9.45893333 L8.074,9.45893333 C8.294,9.45893333 8.472,9.2816 8.472,9.06226667 L8.472,6.50626667 C8.472,6.40026667 8.43,6.2996 8.35533333,6.22493333 C8.28066667,6.15026667 8.18,6.10893333 8.074,6.10893333 L4.30466667,6.10893333 Z M4.29666667,10.0156 C3.74,10.0156 3.29466667,9.57026667 3.29466667,9.0696 L3.29466667,6.50626667 C3.29466667,6.23826667 3.40133333,5.9816 3.59066667,5.7916 C3.78,5.60226667 4.03733333,5.4956 4.30533333,5.4956 L4.89,5.4956 C4.89466667,5.4956 4.898,5.49226667 4.898,5.4876 L4.898,4.53826667 C4.898,3.7036 5.41,3.1916 6.24533333,3.1916 C7.08,3.1916 7.59266667,3.7036 7.59266667,4.53826667 L7.59266667,5.48826667 C7.59266667,5.49293333 7.596,5.49626667 7.6,5.49626667 L8.13,5.49626667 C8.398,5.49626667 8.65466667,5.60226667 8.84466667,5.7916 C9.034,5.9816 9.14066667,6.23826667 9.14066667,6.50626667 L9.14066667,9.06226667 C9.14066667,9.58893333 8.71333333,10.0156 8.18666667,10.0156 L4.29666667,10.0156 Z" id="Fill-1"></path>
                    <path d="M6.25133333,12.758 C2.80666667,12.758 1.27897692e-13,9.95133333 1.27897692e-13,6.50666667 C1.27897692e-13,3.062 2.80666667,0.255333333 6.25133333,0.255333333 C7.706,0.255333333 9.03533333,0.756666667 10.1773333,1.63533333 C10.182,1.63933333 10.188,1.63933333 10.1926667,1.63666667 C10.1973333,1.63333333 10.2,1.628 10.1986667,1.622 L9.95133333,0.448 L9.95133333,0.445333333 C9.95133333,0.381333333 9.95133333,0.256666667 10.014,0.192666667 L10.016,0.189333333 C10.0793333,0.0633333333 10.1426667,-9.50350909e-14 10.2066667,-9.50350909e-14 L10.2693333,-9.50350909e-14 C10.3966667,-9.50350909e-14 10.588,0.128 10.588,0.255333333 L11.0346667,2.54933333 C11.0346667,2.55 11.0346667,2.55133333 11.0346667,2.552 L11.0346667,2.61466667 C11.0346667,2.806 10.9066667,2.934 10.7793333,2.934 L8.48533333,3.38 L8.42,3.38 C8.29266667,3.38 8.10066667,3.252 8.10066667,3.12466667 C8.10066667,3.06066667 8.10066667,2.93333333 8.16466667,2.86933333 C8.22866667,2.80533333 8.29266667,2.74266667 8.356,2.74266667 L9.988,2.42733333 C9.99333333,2.42666667 9.99733333,2.42266667 9.99866667,2.41733333 C10,2.41266667 9.99866667,2.40733333 9.99466667,2.404 C8.79533333,1.29066667 7.16133333,0.79 5.502,1.00333333 C2.96533333,1.332 0.992666667,3.378 0.731333333,5.922 C0.402666667,9.12866667 2.81666667,11.8573333 5.90933333,12.046 C9.11066667,12.2413333 11.802,9.66866667 11.8013333,6.46266667 C11.8013333,6.13866667 11.7993333,5.86 11.7553333,5.586 C11.7446667,5.51666667 11.7233333,5.424 11.7093333,5.35466667 C11.698,5.30533333 11.6926667,5.256 11.692,5.20666667 C11.6946667,5.186 11.7006667,5.166 11.71,5.148 C11.7273333,5.11533333 11.7893333,4.99933333 11.992,4.97666667 L12.056,4.97666667 C12.2466667,4.97666667 12.3593333,5.11466667 12.438,5.35666667 L12.438,5.35866667 C12.5006667,5.522 12.5646667,6.01866667 12.5653362,6.506 C12.5686667,9.95133333 9.69466667,12.758 6.25,12.758 L6.25133333,12.758 Z" id="Fill-5" stroke="#666666" stroke-width="0.1"></path>
                </g>
                <path d="M7.69553333,7.1624 L8.92486667,7.1624 L8.92486667,6.29773333 C8.92486667,5.84773333 8.73286667,5.65573333 8.2822,5.65573333 C7.8822,5.65573333 7.69553333,5.85906667 7.69553333,6.29773333 L7.69553333,7.1624 Z M9.00953333,7.34706667 L7.61086667,7.34706667 C7.55553333,7.34706667 7.51086667,7.3024 7.51086667,7.24706667 L7.51086667,6.29773333 C7.51086667,5.75706667 7.77753333,5.47106667 8.2822,5.47106667 C8.83153333,5.47106667 9.10953333,5.7484 9.10953333,6.29773333 L9.10953333,7.24773333 C9.10953333,7.30306667 9.06486667,7.34706667 9.00953333,7.34706667 L9.00953333,7.34706667 Z M6.39753333,7.9604 C6.22953333,7.9604 6.09286667,8.09706667 6.09286667,8.26506667 L6.09286667,10.8210667 C6.09286667,10.9890667 6.22953333,11.1257333 6.39753333,11.1257333 L10.1668667,11.1257333 C10.3355333,11.1257333 10.4722,10.9890667 10.4722,10.8210667 L10.4722,8.26506667 C10.4722,8.09706667 10.3355333,7.9604 10.1668667,7.9604 L6.39753333,7.9604 Z M10.1668667,11.3110667 L6.39753333,11.3110667 C6.12686667,11.3110667 5.9082,11.0917333 5.90753333,10.8210667 L5.90753333,8.26506667 C5.9082,7.99506667 6.12686667,7.77573333 6.39753333,7.77573333 L10.1668667,7.77573333 C10.4375333,7.77573333 10.6568667,7.99506667 10.6568667,8.26506667 L10.6568667,10.8210667 C10.6568667,11.0917333 10.4375333,11.3110667 10.1668667,11.3110667 L10.1668667,11.3110667 Z M6.39753333,7.34706667 C5.89086667,7.34773333 5.48086667,7.7584 5.4802,8.2644 L5.4802,10.8290667 C5.4802,11.2910667 5.89686667,11.6824 6.3902,11.6824 L10.2788667,11.6824 C10.7542,11.6824 11.1402,11.2964 11.1408667,10.8210667 L11.1408667,8.26506667 C11.1402,7.7584 10.7295333,7.34706667 10.2228667,7.34706667 L9.69286667,7.34706667 C9.63753333,7.34706667 9.59286667,7.3024 9.59286667,7.24706667 L9.59286667,6.29773333 C9.59286667,5.5124 9.12353333,5.04306667 8.33753333,5.04306667 C7.5522,5.04306667 7.08353333,5.5124 7.08353333,6.29773333 L7.08353333,7.24773333 C7.08286667,7.30306667 7.0382,7.34706667 6.98286667,7.34706667 L6.39753333,7.34706667 Z M10.2788667,11.8677333 L6.38953333,11.8677333 C5.7962,11.8677333 5.29486667,11.3917333 5.29486667,10.8290667 L5.29486667,8.26506667 C5.29553333,7.6564 5.78886667,7.16306667 6.39753333,7.1624 L6.8982,7.1624 L6.8982,6.29773333 C6.8982,5.40973333 7.44953333,4.8584 8.33753333,4.8584 C9.22553333,4.8584 9.7782,5.40973333 9.7782,6.29773333 L9.7782,7.1624 L10.2228667,7.1624 C10.8322,7.1624 11.3255333,7.6564 11.3255333,8.26506667 L11.3255333,10.8210667 C11.3248667,11.3984 10.8562,11.8677333 10.2788667,11.8677333 L10.2788667,11.8677333 Z" id="Fill-3" stroke="#666666" stroke-width="0.1" fill="#FC5531"></path>
                <rect id="矩形" stroke="#FFFFFF" opacity="0.0081758045" x="0.5" y="0.5" width="16" height="16"></rect>
            </g>
        </g>
    </g>
</svg>