<?xml version="1.0" encoding="utf-8"?>
<!-- Generator: Adobe Illustrator 23.1.0, SVG Export Plug-In . SVG Version: 6.00 Build 0)  -->
<svg version="1.1" id="暂无内容" xmlns="http://www.w3.org/2000/svg" xmlns:xlink="http://www.w3.org/1999/xlink" x="0px"
	 y="0px" viewBox="0 0 800 800" style="enable-background:new 0 0 800 800;" xml:space="preserve">
<style type="text/css">
	.st0{fill:url(#SVGID_1_);}
	.st1{fill:url(#SVGID_2_);}
	.st2{fill:url(#SVGID_3_);}
	.st3{fill:url(#SVGID_4_);}
	.st4{fill:url(#SVGID_5_);}
	.st5{fill:url(#SVGID_6_);}
	.st6{fill:url(#SVGID_7_);}
	.st7{fill:url(#SVGID_8_);}
	.st8{fill:url(#SVGID_9_);}
	.st9{fill:url(#SVGID_10_);}
	.st10{fill:url(#SVGID_11_);}
	.st11{fill:url(#SVGID_12_);}
	.st12{fill:#F4AFAE;}
	.st13{fill:url(#SVGID_13_);}
	.st14{fill:url(#SVGID_14_);}
	.st15{fill:url(#SVGID_15_);}
	.st16{fill:#FFFFFF;}
	.st17{fill:#FC7070;}
	.st18{fill:#FADAD4;}
	.st19{fill:url(#SVGID_16_);}
	.st20{fill:none;stroke:#2EA7E0;stroke-miterlimit:10;}
	.st21{fill:url(#SVGID_17_);}
	.st22{fill:#FFDCEE;}
	.st23{fill:url(#SVGID_18_);}
	.st24{fill:#4C2C00;}
	.st25{fill:#F48484;}
	.st26{fill:#F7B7B7;}
	.st27{fill:url(#SVGID_19_);}
	.st28{fill:url(#SVGID_20_);}
	.st29{fill:url(#SVGID_21_);}
	.st30{fill:url(#SVGID_22_);}
	.st31{fill:url(#SVGID_23_);}
	.st32{fill:url(#SVGID_24_);}
	.st33{fill:url(#SVGID_25_);}
	.st34{fill:url(#SVGID_26_);}
	.st35{fill:url(#SVGID_27_);}
	.st36{fill:url(#SVGID_28_);}
	.st37{fill:url(#SVGID_29_);}
	.st38{fill:url(#SVGID_30_);}
	.st39{fill:url(#SVGID_31_);}
	.st40{fill:url(#SVGID_32_);}
	.st41{fill:url(#SVGID_33_);}
	.st42{fill:url(#SVGID_34_);}
	.st43{fill:url(#SVGID_35_);}
	.st44{fill:url(#SVGID_36_);}
	.st45{fill:url(#SVGID_37_);}
	.st46{fill:url(#SVGID_38_);}
	.st47{fill:url(#SVGID_39_);}
	.st48{fill:url(#SVGID_40_);}
	.st49{fill:#F6F5F0;}
	.st50{fill:#F0EDE1;}
	.st51{fill:url(#SVGID_41_);}
	.st52{fill:url(#SVGID_42_);}
	.st53{fill:url(#SVGID_43_);}
	.st54{fill:url(#SVGID_44_);}
	.st55{fill:url(#SVGID_45_);}
	.st56{fill:url(#SVGID_46_);}
	.st57{fill:url(#SVGID_47_);}
	.st58{fill:url(#SVGID_48_);}
	.st59{fill:url(#SVGID_49_);}
	.st60{fill:url(#SVGID_50_);}
	.st61{fill:url(#SVGID_51_);}
	.st62{fill:url(#SVGID_52_);}
	.st63{fill:url(#SVGID_53_);}
	.st64{fill:url(#SVGID_54_);}
	.st65{fill:url(#SVGID_55_);}
	.st66{fill:url(#SVGID_56_);}
	.st67{fill:url(#SVGID_57_);}
	.st68{fill:url(#SVGID_58_);}
	.st69{fill:url(#SVGID_59_);}
	.st70{fill:url(#SVGID_60_);}
	.st71{fill:#F79C9B;}
	.st72{fill:url(#SVGID_61_);}
	.st73{fill:url(#SVGID_62_);}
	.st74{fill:url(#SVGID_63_);}
	.st75{fill:url(#SVGID_64_);}
	.st76{fill:url(#SVGID_65_);}
	.st77{fill:url(#SVGID_66_);}
	.st78{fill:url(#SVGID_67_);}
	.st79{fill:url(#SVGID_68_);}
	.st80{fill:url(#SVGID_69_);}
	.st81{fill:url(#SVGID_70_);}
	.st82{fill:url(#SVGID_71_);}
	.st83{fill:url(#SVGID_72_);}
	.st84{fill:url(#SVGID_73_);}
	.st85{fill:url(#SVGID_74_);}
	.st86{fill:url(#SVGID_75_);}
	.st87{fill:#EF6563;}
	.st88{fill:url(#SVGID_76_);}
	.st89{fill:#F18C8A;}
	.st90{fill:#F9C3C0;}
	.st91{fill:url(#SVGID_77_);}
	.st92{fill:url(#SVGID_78_);}
	.st93{fill:url(#SVGID_79_);}
	.st94{fill:url(#SVGID_80_);}
	.st95{fill:url(#SVGID_81_);}
	.st96{fill:url(#SVGID_82_);}
	.st97{fill:url(#SVGID_83_);}
	.st98{fill:url(#SVGID_84_);}
	.st99{fill:url(#SVGID_85_);}
	.st100{fill:url(#SVGID_86_);}
	.st101{fill:url(#SVGID_87_);}
	.st102{fill:url(#SVGID_88_);}
	.st103{fill:url(#SVGID_89_);}
	.st104{fill:url(#SVGID_90_);}
	.st105{fill:url(#SVGID_91_);}
	.st106{fill:url(#SVGID_92_);}
	.st107{fill:url(#SVGID_93_);}
	.st108{fill:url(#SVGID_94_);}
	.st109{fill:url(#SVGID_95_);}
	.st110{fill:url(#SVGID_96_);}
	.st111{fill:url(#SVGID_97_);}
	.st112{fill:url(#SVGID_98_);}
	.st113{fill:url(#SVGID_99_);}
	.st114{fill:url(#SVGID_100_);}
	.st115{fill:url(#SVGID_101_);}
	.st116{fill:url(#SVGID_102_);}
	.st117{fill:url(#SVGID_103_);}
	.st118{fill:#F4BAD9;}
	.st119{fill:url(#SVGID_104_);}
	.st120{fill:url(#SVGID_105_);}
	.st121{fill:url(#SVGID_106_);}
	.st122{fill:url(#SVGID_107_);}
	.st123{fill:url(#SVGID_108_);}
	.st124{fill:url(#SVGID_109_);}
	.st125{fill:url(#SVGID_110_);}
	.st126{fill:url(#SVGID_111_);}
	.st127{fill:url(#SVGID_112_);}
	.st128{fill:url(#SVGID_113_);}
	.st129{fill:url(#SVGID_114_);}
	.st130{fill:url(#SVGID_115_);}
	.st131{fill:url(#SVGID_116_);}
	.st132{fill:url(#SVGID_117_);}
	.st133{fill:url(#SVGID_118_);}
	.st134{fill:#F37170;}
	.st135{fill:#F5AEAD;}
	.st136{fill:url(#SVGID_119_);}
	.st137{fill:url(#SVGID_120_);}
	.st138{fill:url(#SVGID_121_);}
	.st139{fill:url(#SVGID_122_);}
	.st140{fill:url(#SVGID_123_);}
	.st141{fill:url(#SVGID_124_);}
	.st142{fill:url(#SVGID_125_);}
	.st143{fill:url(#SVGID_126_);}
	.st144{fill:url(#SVGID_127_);}
	.st145{fill:url(#SVGID_128_);}
	.st146{fill:url(#SVGID_129_);}
	.st147{fill:url(#SVGID_130_);}
	.st148{fill:url(#SVGID_131_);}
	.st149{fill:url(#SVGID_132_);}
	.st150{fill:url(#SVGID_133_);}
	.st151{fill:url(#SVGID_134_);}
	.st152{fill:url(#SVGID_135_);}
	.st153{fill:url(#SVGID_136_);}
	.st154{fill:url(#SVGID_137_);}
	.st155{fill:url(#SVGID_138_);}
	.st156{fill:url(#SVGID_139_);}
	.st157{fill:#F68382;}
	.st158{fill:#F7F8F8;}
	.st159{fill:#E86867;}
	.st160{fill:#B6DFFF;}
	.st161{fill:none;stroke:#4C2C00;stroke-width:6;stroke-linecap:round;stroke-miterlimit:10;}
	.st162{fill:url(#SVGID_140_);}
	.st163{fill:url(#SVGID_141_);}
	.st164{fill:url(#SVGID_142_);}
	.st165{fill:url(#SVGID_143_);}
	.st166{fill:url(#SVGID_144_);}
	.st167{fill:url(#SVGID_145_);}
	.st168{fill:url(#SVGID_146_);}
	.st169{fill:url(#SVGID_147_);}
	.st170{fill:url(#SVGID_148_);}
	.st171{fill:url(#SVGID_149_);}
	.st172{fill:url(#SVGID_150_);}
	.st173{fill:url(#SVGID_151_);}
	.st174{fill:url(#SVGID_152_);}
	.st175{fill:url(#SVGID_153_);}
	.st176{fill:url(#SVGID_154_);}
	.st177{fill:url(#SVGID_155_);}
	.st178{fill:url(#SVGID_156_);}
	.st179{fill:#F79B9A;}
	.st180{fill:url(#SVGID_157_);}
	.st181{fill:url(#SVGID_158_);}
	.st182{fill:url(#SVGID_159_);}
	.st183{fill:url(#SVGID_160_);}
	.st184{fill:url(#SVGID_161_);}
	.st185{fill:url(#SVGID_162_);}
	.st186{fill:url(#SVGID_163_);}
	.st187{fill:url(#SVGID_164_);}
	.st188{fill:url(#SVGID_165_);}
	.st189{fill:url(#SVGID_166_);}
	.st190{fill:url(#SVGID_167_);}
	.st191{fill:url(#SVGID_168_);}
	.st192{fill:url(#SVGID_169_);}
	.st193{fill:url(#SVGID_170_);}
	.st194{fill:url(#SVGID_171_);}
	.st195{fill:url(#SVGID_172_);}
	.st196{fill:url(#SVGID_173_);}
	.st197{fill:url(#SVGID_174_);}
	.st198{fill:url(#SVGID_175_);}
	.st199{fill:url(#SVGID_176_);}
	.st200{fill:url(#SVGID_177_);}
	.st201{fill:url(#SVGID_178_);}
	.st202{fill:url(#SVGID_179_);}
	.st203{fill:url(#SVGID_180_);}
	.st204{fill:url(#SVGID_181_);}
	.st205{fill:url(#SVGID_182_);}
	.st206{fill:url(#SVGID_183_);}
	.st207{fill:url(#SVGID_184_);}
	.st208{fill:url(#SVGID_185_);}
	.st209{fill:url(#SVGID_186_);}
	.st210{fill:url(#SVGID_187_);}
	.st211{fill:#EA6E6D;}
	.st212{fill:#F47E7D;}
	.st213{fill:#F48E8D;}
	.st214{fill:url(#SVGID_188_);}
	.st215{fill:url(#SVGID_189_);}
	.st216{fill:url(#SVGID_190_);}
	.st217{fill:url(#SVGID_191_);}
	.st218{fill:url(#SVGID_192_);}
	.st219{fill:url(#SVGID_193_);}
	.st220{fill:url(#SVGID_194_);}
	.st221{fill:url(#SVGID_195_);}
	.st222{fill:url(#SVGID_196_);}
	.st223{fill:url(#SVGID_197_);}
	.st224{fill:url(#SVGID_198_);}
	.st225{fill:url(#SVGID_199_);}
	.st226{fill:url(#SVGID_200_);}
	.st227{fill:url(#SVGID_201_);}
	.st228{fill:url(#SVGID_202_);}
	.st229{fill:url(#SVGID_203_);}
	.st230{fill:url(#SVGID_204_);}
	.st231{fill:url(#SVGID_205_);}
	.st232{fill:url(#SVGID_206_);}
	.st233{fill:url(#SVGID_207_);}
	.st234{fill:url(#SVGID_208_);}
	.st235{fill:url(#SVGID_209_);}
	.st236{fill:url(#SVGID_210_);}
	.st237{fill:url(#SVGID_211_);}
	.st238{fill:url(#SVGID_212_);}
	.st239{fill:url(#SVGID_213_);}
	.st240{fill:url(#SVGID_214_);}
	.st241{fill:url(#SVGID_215_);}
	.st242{fill:url(#SVGID_216_);}
	.st243{fill:url(#SVGID_217_);}
	.st244{fill:url(#SVGID_218_);}
	.st245{fill:url(#SVGID_219_);}
	.st246{fill:url(#SVGID_220_);}
	.st247{fill:url(#SVGID_221_);}
	.st248{fill:url(#SVGID_222_);}
	.st249{fill:url(#SVGID_223_);}
	.st250{fill:url(#SVGID_224_);}
	.st251{fill:url(#SVGID_225_);}
	.st252{fill:url(#SVGID_226_);}
</style>
<g>
	<g>
		<g>
			<g>
				<linearGradient id="SVGID_1_" gradientUnits="userSpaceOnUse" x1="221.3344" y1="158.1725" x2="330.0416" y2="158.1725">
					<stop  offset="0" style="stop-color:#FFF2F0"/>
					<stop  offset="1" style="stop-color:#FADAD4"/>
				</linearGradient>
				<path class="st0" d="M232.31,158.47l64.81,37.42c10.5,6.06,23.92,2.46,29.97-8.03l0,0c6.06-10.5,2.46-23.92-8.03-29.97
					l-64.81-37.42c-10.5-6.06-23.92-2.46-29.97,8.03l0,0C218.22,138.99,221.81,152.41,232.31,158.47z"/>
				<linearGradient id="SVGID_2_" gradientUnits="userSpaceOnUse" x1="631.7153" y1="528.0729" x2="740.4224" y2="528.0729">
					<stop  offset="0" style="stop-color:#FFF2F0"/>
					<stop  offset="1" style="stop-color:#FADAD4"/>
				</linearGradient>
				<path class="st1" d="M729.45,527.78l-64.81-37.42c-10.5-6.06-23.92-2.46-29.97,8.03l0,0c-6.06,10.5-2.46,23.92,8.03,29.97
					l64.81,37.42c10.5,6.06,23.92,2.46,29.97-8.03C743.54,547.26,739.94,533.84,729.45,527.78z"/>
				<linearGradient id="SVGID_3_" gradientUnits="userSpaceOnUse" x1="31.2045" y1="266.0763" x2="115.0514" y2="266.0763">
					<stop  offset="0" style="stop-color:#FFF2F0"/>
					<stop  offset="1" style="stop-color:#FADAD4"/>
				</linearGradient>
				<path class="st2" d="M39.5,265.83l50.65,29.24c7.94,4.58,18.09,1.86,22.67-6.07l0,0c4.58-7.94,1.86-18.09-6.07-22.67
					L56.1,237.08c-7.94-4.58-18.09-1.86-22.67,6.07C28.85,251.09,31.57,261.24,39.5,265.83z"/>
				<linearGradient id="SVGID_4_" gradientUnits="userSpaceOnUse" x1="478.9468" y1="117.5159" x2="562.7936" y2="117.5159">
					<stop  offset="0" style="stop-color:#FFF2F0"/>
					<stop  offset="1" style="stop-color:#FADAD4"/>
				</linearGradient>
				<path class="st3" d="M487.25,117.26l50.65,29.24c7.94,4.58,18.09,1.86,22.67-6.07l0,0c4.58-7.94,1.86-18.09-6.07-22.67
					l-50.65-29.24c-7.94-4.58-18.09-1.86-22.67,6.07C476.59,102.53,479.31,112.68,487.25,117.26z"/>
				<linearGradient id="SVGID_5_" gradientUnits="userSpaceOnUse" x1="686.0689" y1="367.0043" x2="769.9158" y2="367.0043">
					<stop  offset="0" style="stop-color:#FFF2F0"/>
					<stop  offset="1" style="stop-color:#FADAD4"/>
				</linearGradient>
				<path class="st4" d="M761.62,367.26l-50.65-29.24c-7.94-4.58-18.09-1.86-22.67,6.07c-4.58,7.94-1.86,18.09,6.07,22.67
					L745.02,396c7.94,4.58,18.09,1.86,22.67-6.07h0C772.27,381.99,769.55,371.84,761.62,367.26z"/>
				<linearGradient id="SVGID_6_" gradientUnits="userSpaceOnUse" x1="643.9982" y1="437.0349" x2="720.3591" y2="437.0349">
					<stop  offset="0" style="stop-color:#FFF2F0"/>
					<stop  offset="1" style="stop-color:#FADAD4"/>
				</linearGradient>
				<path class="st5" d="M644.58,415.33L644.58,415.33c-1.19,2.06-0.48,4.7,1.58,5.89l67.74,39.11c2.06,1.19,4.7,0.48,5.89-1.58
					c1.19-2.06,0.48-4.7-1.58-5.89l-67.74-39.11C648.4,412.56,645.77,413.26,644.58,415.33z"/>
				<linearGradient id="SVGID_7_" gradientUnits="userSpaceOnUse" x1="149.0508" y1="240.0689" x2="225.4117" y2="240.0689">
					<stop  offset="0" style="stop-color:#FFF2F0"/>
					<stop  offset="1" style="stop-color:#FADAD4"/>
				</linearGradient>
				<path class="st6" d="M151.21,224.25l67.74,39.11c2.06,1.19,4.7,0.48,5.89-1.58c1.19-2.06,0.48-4.7-1.58-5.89l-67.74-39.11
					c-2.06-1.19-4.7-0.48-5.89,1.58C148.44,220.42,149.15,223.06,151.21,224.25z"/>
				<linearGradient id="SVGID_8_" gradientUnits="userSpaceOnUse" x1="33.8264" y1="487.4163" x2="62.1466" y2="487.4163">
					<stop  offset="0" style="stop-color:#FFF2F0"/>
					<stop  offset="1" style="stop-color:#FADAD4"/>
				</linearGradient>
				<path class="st7" d="M60.51,490.86l-8.04-4.64l4.64-8.04c0.91-1.57,0.37-3.57-1.2-4.48c-1.57-0.91-3.57-0.37-4.48,1.2
					l-4.64,8.04l-8.04-4.64c-1.57-0.91-3.57-0.37-4.48,1.2s-0.37,3.57,1.2,4.48l8.04,4.64l-4.64,8.04c-0.91,1.57-0.37,3.57,1.2,4.48
					s3.57,0.37,4.48-1.2l4.64-8.04l8.04,4.64c1.57,0.91,3.57,0.37,4.48-1.2C62.61,493.77,62.07,491.76,60.51,490.86z"/>
				<linearGradient id="SVGID_9_" gradientUnits="userSpaceOnUse" x1="388.3286" y1="158.1723" x2="464.6894" y2="158.1723">
					<stop  offset="0" style="stop-color:#FFF2F0"/>
					<stop  offset="1" style="stop-color:#FADAD4"/>
				</linearGradient>
				<path class="st8" d="M390.48,142.35l67.74,39.11c2.06,1.19,4.7,0.48,5.89-1.58c1.19-2.06,0.48-4.7-1.58-5.89l-67.74-39.11
					c-2.06-1.19-4.7-0.48-5.89,1.58l0,0C387.72,138.53,388.42,141.16,390.48,142.35z"/>
				<linearGradient id="SVGID_10_" gradientUnits="userSpaceOnUse" x1="624.7111" y1="195.9296" x2="646.4767" y2="195.9296">
					<stop  offset="0" style="stop-color:#FFF2F0"/>
					<stop  offset="1" style="stop-color:#FADAD4"/>
				</linearGradient>
				<path class="st9" d="M635.59,206.81c6,0,10.88-4.88,10.88-10.88c0-6-4.88-10.88-10.88-10.88s-10.88,4.88-10.88,10.88
					C624.71,201.93,629.59,206.81,635.59,206.81z M635.59,188.05c4.35,0,7.88,3.54,7.88,7.88s-3.54,7.88-7.88,7.88
					s-7.88-3.54-7.88-7.88S631.25,188.05,635.59,188.05z"/>
				<linearGradient id="SVGID_11_" gradientUnits="userSpaceOnUse" x1="94.7218" y1="134.3062" x2="115.0514" y2="134.3062">
					<stop  offset="0" style="stop-color:#FFF2F0"/>
					<stop  offset="1" style="stop-color:#FADAD4"/>
				</linearGradient>
				<path class="st10" d="M104.89,144.47c5.6,0,10.17-4.56,10.17-10.16s-4.56-10.16-10.17-10.16c-5.6,0-10.16,4.56-10.16,10.16
					S99.28,144.47,104.89,144.47z M104.89,127.14c3.95,0,7.17,3.21,7.17,7.16s-3.21,7.16-7.17,7.16s-7.16-3.21-7.16-7.16
					S100.94,127.14,104.89,127.14z"/>
				<linearGradient id="SVGID_12_" gradientUnits="userSpaceOnUse" x1="710.9763" y1="253.7186" x2="729.7419" y2="253.7186">
					<stop  offset="0" style="stop-color:#FFF2F0"/>
					<stop  offset="1" style="stop-color:#FADAD4"/>
				</linearGradient>
				<path class="st11" d="M720.36,263.1c5.18,0,9.38-4.2,9.38-9.38c0-5.18-4.2-9.38-9.38-9.38s-9.38,4.2-9.38,9.38
					C710.98,258.9,715.18,263.1,720.36,263.1z"/>
				<g>
					<path class="st12" d="M697.64,600.37H76.19c-2.76,0-5,2.24-5,5s2.24,5,5,5h621.45c2.76,0,5-2.24,5-5
						S700.4,600.37,697.64,600.37z"/>
				</g>
				<g>
					<path class="st12" d="M734.4,600.37h-15.06c-2.76,0-5,2.24-5,5s2.24,5,5,5h15.06c2.76,0,5-2.24,5-5S737.16,600.37,734.4,600.37
						z"/>
				</g>
				<g>
					<path class="st12" d="M476.27,635.86H323.08c-2.76,0-5,2.24-5,5c0,2.76,2.24,5,5,5h153.19c2.76,0,5-2.24,5-5
						C481.27,638.09,479.04,635.86,476.27,635.86z"/>
				</g>
				<g>
					<path class="st12" d="M508,636.43h-14.87c-2.76,0-5,2.24-5,5s2.24,5,5,5H508c2.76,0,5-2.24,5-5S510.76,636.43,508,636.43z"/>
				</g>
				<g>
					<path class="st12" d="M680.02,636.43H525.87c-2.76,0-5,2.24-5,5s2.24,5,5,5h154.15c2.76,0,5-2.24,5-5
						S682.78,636.43,680.02,636.43z"/>
				</g>
				<g>
					<path class="st12" d="M199.76,669.81h-15.32c-2.76,0-5,2.24-5,5s2.24,5,5,5h15.32c2.76,0,5-2.24,5-5
						S202.53,669.81,199.76,669.81z"/>
				</g>
				<g>
					<path class="st12" d="M401.23,669.81H299.8c-2.65-3.92-6.67-8.17-15.78-8.17c-7.07,0-12.19,4.35-15.01,8.17h-53.67
						c-2.76,0-5,2.24-5,5s2.24,5,5,5h56.43c1.89,0,3.63-1.07,4.47-2.76c0.03-0.05,2.84-5.41,7.78-5.41c5.17,0,6.32,1.83,8.59,5.48
						l0.21,0.34c0.91,1.46,2.52,2.35,4.24,2.35h104.17c2.76,0,5-2.24,5-5S403.99,669.81,401.23,669.81z"/>
				</g>
				<linearGradient id="SVGID_13_" gradientUnits="userSpaceOnUse" x1="79.5674" y1="401.0617" x2="197.1066" y2="401.0617">
					<stop  offset="0" style="stop-color:#FFF2F0"/>
					<stop  offset="1" style="stop-color:#FADAD4"/>
				</linearGradient>
				<path class="st13" d="M147.97,444.44l-52.02-30.03c-15.67-9.04-21.03-29.08-11.99-44.74l0,0c9.04-15.67,29.08-21.03,44.74-11.99
					l52.02,30.03c15.67,9.04,21.03,29.08,11.99,44.74l0,0C183.67,448.12,163.64,453.49,147.97,444.44z"/>
			</g>
		</g>
		<linearGradient id="SVGID_14_" gradientUnits="userSpaceOnUse" x1="396.7643" y1="163.6638" x2="396.7643" y2="591.8342">
			<stop  offset="0.2961" style="stop-color:#FBEAE6"/>
			<stop  offset="1" style="stop-color:#F9C8C5"/>
		</linearGradient>
		<path class="st14" d="M636.36,591.83c26.32-42.79,41.51-93.15,41.51-147.06c0-155.25-125.86-281.11-281.11-281.11
			c-155.25,0-281.11,125.86-281.11,281.11c0,53.92,15.19,104.28,41.51,147.06H636.36z"/>
		<linearGradient id="SVGID_15_" gradientUnits="userSpaceOnUse" x1="396.764" y1="227.2385" x2="396.764" y2="591.8342">
			<stop  offset="0.2263" style="stop-color:#FFDBD9"/>
			<stop  offset="1" style="stop-color:#F79C9B"/>
		</linearGradient>
		<path class="st15" d="M557.04,591.83c35.55-38.72,57.26-90.36,57.26-147.06c0-120.14-97.39-217.53-217.53-217.53
			s-217.53,97.39-217.53,217.53c0,56.71,21.71,108.34,57.26,147.06H557.04z"/>
		<g>
			<path class="st16" d="M277.32,294.8c-5.79,0-10.5-4.71-10.5-10.5s4.71-10.5,10.5-10.5s10.5,4.71,10.5,10.5
				S283.11,294.8,277.32,294.8z M277.32,276.8c-4.14,0-7.5,3.36-7.5,7.5s3.36,7.5,7.5,7.5s7.5-3.36,7.5-7.5
				S281.45,276.8,277.32,276.8z"/>
		</g>
		<circle class="st16" cx="515.91" cy="362.81" r="4.6"/>
		<path class="st16" d="M587.6,446.44l-8.04-4.64l4.64-8.04c0.91-1.57,0.37-3.57-1.2-4.48c-1.57-0.91-3.57-0.37-4.48,1.2l-4.64,8.04
			l-8.04-4.64c-1.57-0.91-3.57-0.37-4.48,1.2s-0.37,3.57,1.2,4.48l8.04,4.64l-4.64,8.04c-0.91,1.57-0.37,3.57,1.2,4.48
			s3.57,0.37,4.48-1.2l4.64-8.04l8.04,4.64c1.57,0.91,3.57,0.37,4.48-1.2C589.71,449.35,589.17,447.34,587.6,446.44z"/>
		<path class="st16" d="M237.02,460.6l-8.04-4.64l4.64-8.04c0.91-1.57,0.37-3.57-1.2-4.48c-1.57-0.91-3.57-0.37-4.48,1.2l-4.64,8.04
			l-8.04-4.64c-1.57-0.91-3.57-0.37-4.48,1.2s-0.37,3.57,1.2,4.48l8.04,4.64l-4.64,8.04c-0.91,1.57-0.37,3.57,1.2,4.48
			s3.57,0.37,4.48-1.2l4.64-8.04l8.04,4.64c1.57,0.91,3.57,0.37,4.48-1.2C239.12,463.51,238.59,461.5,237.02,460.6z"/>
	</g>
	<path class="st16" d="M203.72,302.61c0,0-34.04-22.02-76.5-13.86s-56.92,47.85-54.72,61.28c2.2,13.43,10.07,15.92,34.96,10.98
		s68.27-17.45,74.31-20.68S203.72,302.61,203.72,302.61z"/>
	<linearGradient id="SVGID_16_" gradientUnits="userSpaceOnUse" x1="135.982" y1="303.6519" x2="135.982" y2="363.3532">
		<stop  offset="0.2961" style="stop-color:#FBEAE6"/>
		<stop  offset="1" style="stop-color:#EAE8DB"/>
	</linearGradient>
	<path class="st19" d="M153.39,304.3c-10.43,1.33-26.17,6.07-33.13,19.53c-6.95,13.46-18.12,37.92-34.96,36.03
		c-5.31-0.76-12.44-2.75-12.81-16.15c-0.29,2.46-0.28,4.61,0,6.33c2.2,13.43,10.07,15.92,34.96,10.98
		c24.89-4.94,68.27-17.45,74.31-20.68c4.11-2.19,12.8-18.88,17.93-29.3C193.19,308.32,174.25,301.54,153.39,304.3z"/>
	<path class="st22" d="M189.07,330.91c1.68-2.79,3.43-5.93,5.1-9.09c-9.77-3.86-42.19-14.51-72.65-0.19
		c-0.45,0.71-0.88,1.43-1.27,2.2c-3.61,7-8.37,16.96-14.46,24.65C122.86,342,172.46,324.32,189.07,330.91z"/>
	<path class="st16" d="M255.15,276.81c0,0-5.67-38.11-30.38-61.06c-11.35-9.86-39.17-20.1-58.75-6.07s-23.06,34.51-10.25,48.92
		c5.31,5.31,8.97,7.02,13.54,5.88c4.58-1.14,4.54-8.72,4.54-8.72s32.61,9.1,44.33,33.56C242.34,280.79,255.15,276.81,255.15,276.81z
		"/>
	<linearGradient id="SVGID_17_" gradientUnits="userSpaceOnUse" x1="211.9032" y1="220.0899" x2="211.9032" y2="289.3203">
		<stop  offset="0.2961" style="stop-color:#FBEAE6"/>
		<stop  offset="1" style="stop-color:#EAE8DB"/>
	</linearGradient>
	<path class="st21" d="M218.18,289.32c15.38-5.43,26.16-9.02,31.96-10.91c-2.39-9.31-10.5-37.03-25.01-49.39
		c-5.86-4.93-25.99-15.36-39.9-3.41c-13.91,11.95-11.38,30.15-11.38,30.15S206.46,264.86,218.18,289.32z"/>
	<path class="st22" d="M218.54,236.99c-4.62-4.29-16.71-11.73-33.76-10.97c-6.71,5.98-9.44,13.42-10.5,19.37
		c8.33,0.79,31.2,3.93,44.07,15.31c5.12,5.3,8.49,8.31,10.7,24.83c4.41-1.52,8.26-2.84,11.58-3.95
		C239.19,273.89,233.62,249.93,218.54,236.99z"/>
	<path class="st16" d="M339.16,363.56c0,0-9.15,4.91-4.39,15.87c-7.69,1.09-20.86,9.06-23.43,12.85
		c-3.29-3.03-11.71-10.86-11.71-10.86l-21.06,26.92l4.44,8.95c0,0-20.35,14.44-9.01,40.6c11.35,26.17,20.5,36.03,36.97,37.16
		c-1.46,11.76,0.37,14.98-4.03,27.11c-4.39,12.14-5.31,22.94-4.76,29.58c-10.43,2.09-40.63,9.86-34.23,32.42s36.42,10.05,43.56,6.26
		c7.14-3.79,14.28-15.55,22.15-24.27c7.87-8.72,27.27-31.67,27.27-31.67l6.77-153.07L339.16,363.56z M303.53,474.7
		c0,0-7.08-13.9-8.18-19.34c0,0,12.69,13.7,14.15,18.67C305.97,474.57,303.53,474.7,303.53,474.7z"/>
	<path class="st49" d="M372.59,443.85c0,0-14.64-34.89-40.27-29.33c-4.64,1.26-20.25,10.62-13.18,29.33
		c2.68,6.32,12.69,17.44,17.57,21.49c4.88,4.05,12.69,12.89,12.44,16.69C363.44,477.76,372.59,443.85,372.59,443.85z"/>
	<path class="st49" d="M299.62,381.42l-21.06,26.92l4.44,8.95c0,0,0,0,0,0c28.04-1.8,28.33-25,28.33-25
		C308.04,389.25,299.62,381.42,299.62,381.42z"/>
	<path class="st49" d="M334.76,379.43c0,0,15.25,6.67,32.94,1.99l-28.55-17.85C339.16,363.56,330,368.48,334.76,379.43z"/>
	<path class="st49" d="M291.39,445.28c1.65,4.84,3.97,10.08,3.97,10.08s12.69,13.7,14.15,18.67l9.33,1.4
		C318.84,475.42,302,452.86,291.39,445.28z"/>
	<path class="st49" d="M334.15,493.79c0,0-7.81-0.25-19.77-1.01c-15.37-1.71-23.15-6.68-26.94-10.48
		c6.59,8.35,13.78,12.09,23.52,12.76l23.79,3.54L334.15,493.79z"/>
	<path class="st50" d="M361.92,512.26c-2.88,2.11-5.31,4.02-6.11,4.98c0,0-18.3,21.43-24.34,35.65
		c-6.04,14.22-16.56,35.17-36.24,38.49c-10.25,1.14-29.39,2.49-26.14-21.41c-2.06,3.92-2.73,8.6-1.14,14.2
		c6.41,22.56,36.42,10.05,43.56,6.26c7.14-3.79,14.28-15.55,22.15-24.27c7.87-8.72,27.27-31.67,27.27-31.67L361.92,512.26z"/>
	<g>
		<polygon class="st17" points="550.81,338.43 490.15,343.49 492.43,546.24 558.11,549.78 		"/>
		<linearGradient id="SVGID_18_" gradientUnits="userSpaceOnUse" x1="354.2412" y1="322.1865" x2="538.2878" y2="322.1865">
			<stop  offset="0" style="stop-color:#F7C1BF"/>
			<stop  offset="1" style="stop-color:#F79C9B"/>
		</linearGradient>
		<polygon class="st23" points="356.29,325.92 490.15,343.49 538.29,339.47 538.29,300.89 354.24,322.19 		"/>
		<linearGradient id="SVGID_19_" gradientUnits="userSpaceOnUse" x1="354.2412" y1="443.2855" x2="492.4326" y2="443.2855">
			<stop  offset="0" style="stop-color:#F79C9B"/>
			<stop  offset="1" style="stop-color:#F67C7B"/>
		</linearGradient>
		<polygon class="st27" points="354.24,560.66 492.43,546.24 490.15,343.49 356.29,325.92 		"/>
		<linearGradient id="SVGID_20_" gradientUnits="userSpaceOnUse" x1="354.2412" y1="565.0165" x2="558.1078" y2="565.0165">
			<stop  offset="0" style="stop-color:#F7C1BF"/>
			<stop  offset="1" style="stop-color:#F79C9B"/>
		</linearGradient>
		<polygon class="st28" points="558.11,549.78 492.43,546.24 354.24,560.66 554.35,583.79 		"/>
		<linearGradient id="SVGID_21_" gradientUnits="userSpaceOnUse" x1="350.1366" y1="292.1645" x2="599.8389" y2="292.1645">
			<stop  offset="0" style="stop-color:#F79C9B"/>
			<stop  offset="1" style="stop-color:#F67C7B"/>
		</linearGradient>
		<polygon class="st29" points="393.24,292.92 599.84,264.86 539.64,296.34 350.14,319.47 		"/>
		<polygon class="st17" points="599.84,271.69 599.84,264.86 539.64,296.34 539.64,304.05 		"/>
		<linearGradient id="SVGID_22_" gradientUnits="userSpaceOnUse" x1="534.1638" y1="444.0442" x2="630.6241" y2="444.0442">
			<stop  offset="0" style="stop-color:#F7C1BF"/>
			<stop  offset="1" style="stop-color:#F79C9B"/>
		</linearGradient>
		<polygon class="st30" points="539.64,296.34 630.62,337.29 630.62,537.9 539.64,591.75 534.16,587.2 		"/>
		<path class="st18" d="M350.14,319.47v248.01l189.5,24.27V296.34L350.14,319.47z M531.09,582.27l-172.4-22.71V327.46l172.4-21.65
			V582.27z"/>
	</g>
	<ellipse class="st16" cx="353.68" cy="361" rx="24.93" ry="18.04"/>
	<ellipse class="st16" cx="355.95" cy="485.06" rx="24.93" ry="18.04"/>
	<g>
		<path class="st16" d="M311.77,295.64c-27.85-28.86-74.82-37.13-112.9,2.33c-35.82,37.11-30.1,88.11-2.25,116.97
			c27.85,28.86,71.32,20.47,103.11-12.47S339.62,324.5,311.77,295.64z"/>
		
			<ellipse transform="matrix(0.7425 -0.6699 0.6699 0.7425 -184.628 231.4017)" class="st24" cx="208.65" cy="355.83" rx="13.1" ry="18.76"/>
		<ellipse class="st16" cx="206.14" cy="355.86" rx="5.63" ry="5.84"/>
		<ellipse class="st16" cx="219.36" cy="357.91" rx="2.98" ry="3.09"/>
		
			<ellipse transform="matrix(0.7425 -0.6699 0.6699 0.7425 -143.5033 248.823)" class="st24" cx="251.87" cy="311.05" rx="13.1" ry="18.76"/>
		<ellipse class="st16" cx="251.9" cy="308.45" rx="5.63" ry="5.84"/>
		<ellipse class="st16" cx="253.88" cy="322.15" rx="2.98" ry="3.09"/>
		
			<ellipse transform="matrix(0.6876 -0.7261 0.7261 0.6876 -220.1779 286.09)" class="st22" cx="222.4" cy="398.94" rx="18.22" ry="8.38"/>
		
			<ellipse transform="matrix(0.6876 -0.7261 0.7261 0.6876 -144.5169 314.6932)" class="st22" cx="293.48" cy="325.3" rx="18.22" ry="8.38"/>
		
			<ellipse transform="matrix(0.6721 -0.7405 0.7405 0.6721 -182.3451 312.8249)" class="st24" cx="262.02" cy="362.29" rx="11.37" ry="7.75"/>
		
			<ellipse transform="matrix(0.7418 -0.6706 0.6706 0.7418 -183.362 286.5637)" class="st25" cx="280.48" cy="381.42" rx="6.89" ry="9.95"/>
		<path class="st26" d="M280.06,380.97c-1.92,1.99-1.94,5.33-0.32,8.29c2.91,1.31,5.87,1.16,7.66-0.69
			c1.78-1.85,1.93-4.92,0.67-7.93C285.2,378.96,281.97,378.99,280.06,380.97z"/>
		
			<ellipse transform="matrix(0.6641 -0.7476 0.7476 0.6641 -184.7397 315.9043)" class="st16" cx="259.22" cy="363.56" rx="2.9" ry="2.13"/>
	</g>
</g>
</svg>
