<?xml version="1.0" encoding="UTF-8"?>
<svg width="17px" height="17px" viewBox="0 0 17 17" version="1.1" xmlns="http://www.w3.org/2000/svg" xmlns:xlink="http://www.w3.org/1999/xlink">
    <!-- Generator: Sketch 61 (89581) - https://sketch.com -->
    <title>编组 5</title>
    <desc>Created with Sketch.</desc>
    <defs>
        <polygon id="path-1" points="0 0 11 0 11 11 0 11"></polygon>
    </defs>
    <g id="Welcome" stroke="none" stroke-width="1" fill="none" fill-rule="evenodd">
        <g id="用户管理-超管" transform="translate(-718.000000, -100.000000)">
            <g id="编组-5" transform="translate(718.000000, 100.000000)">
                <g id="编组" transform="translate(3.000000, 3.000000)">
                    <mask id="mask-2" fill="white">
                        <use xlink:href="#path-1"></use>
                    </mask>
                    <g id="Clip-2"></g>
                    <path d="M10.5658839,4.15967418 C10.3619809,4.15967418 10.1945532,4.33089712 10.1939552,4.54507922 L10.1939552,9.1588931 C10.1939552,9.89288105 9.48717112,10.231031 9.15231572,10.231031 L1.78489889,10.231031 C1.31490541,10.231031 0.828169167,9.75418433 0.742661448,8.86922562 L0.742661448,1.8411069 C0.742661448,0.741352377 1.52120026,0.768355278 1.78489889,0.768355278 L6.69232442,0.768355278 C6.89742335,0.768355278 7.06365514,0.595904932 7.06365514,0.384177639 C7.06365514,0.172450346 6.89742335,0 6.69232442,0 L1.72809306,0 C1.08588824,0 0,0.413021647 0,1.49375139 L0,8.92814104 C0,10.3813881 0.885572951,11 1.72809306,11 L9.20852359,11 C10.1592738,11 10.9378126,10.3899799 10.9378126,9.21719482 L10.9378126,4.54262441 C10.9366167,4.33089712 10.769189,4.15967418 10.5658839,4.15967418 M3.67742988,7.81058915 L3.95846923,6.74458826 L4.7077082,7.51908056 L3.67742988,7.81058915 M4.38600783,6.18120955 L8.27332029,2.16084579 L9.14095456,3.07280741 L5.26141553,7.08519304 L4.38600783,6.18120955 M10.224451,1.95218701 L9.68987823,2.50574649 L8.82164601,1.59378487 L9.34964123,1.04943093 C9.43275712,0.962285204 9.59480322,0.975172952 9.69047619,1.07397902 L10.1993368,1.6011493 C10.2525549,1.6563825 10.2830507,1.72879938 10.2830507,1.80060254 C10.2824527,1.86013167 10.2621222,1.91413747 10.224451,1.95218701 M3.42808219,6.09345012 C3.42090672,6.10265566 3.41373125,6.1130886 3.41074147,6.12474894 L2.85703414,8.2229971 C2.82474451,8.34451015 2.85763209,8.47706985 2.94553164,8.5697389 C3.01070885,8.63540504 3.09741248,8.67222718 3.18889976,8.67222718 C3.21939552,8.67222718 3.24989128,8.66854497 3.27978908,8.65995314 L5.29490107,8.09166481 C5.29789085,8.09166481 5.29908676,8.09473332 5.30147858,8.09473332 C5.32479887,8.09473332 5.3475212,8.08552778 5.36486193,8.06773042 L10.7518482,2.49838206 C10.9121005,2.33206873 11,2.10622629 11,1.86135907 C11,1.58335193 10.8857904,1.30534479 10.6860731,1.09914082 L10.1772124,0.571970542 C9.97749511,0.365152868 9.70781692,0.247322026 9.43933464,0.247322026 C9.20194608,0.247322026 8.98369211,0.337536264 8.82284192,0.503235885 L3.43585562,6.07442535 C3.42987606,6.07933497 3.43226788,6.0873131 3.42808219,6.09345012" id="Fill-1" fill="#666666" mask="url(#mask-2)"></path>
                </g>
                <rect id="矩形备份" stroke="#FFFFFF" opacity="0.01" x="0.5" y="0.5" width="16" height="16"></rect>
            </g>
        </g>
    </g>
</svg>